<svg xmlns="http://www.w3.org/2000/svg" viewBox="0 0 180 180">
  <rect width="180" height="180" rx="38" fill="#246b64"/>
  <path fill="#fffaf2" d="M52 48h76a10 10 0 0 1 10 10v64a10 10 0 0 1-10 10H52a10 10 0 0 1-10-10V58a10 10 0 0 1 10-10Z"/>
  <path fill="#246b64" d="M64 73a6 6 0 1 1 0-12 6 6 0 0 1 0 12Zm20-9h39a5 5 0 0 1 0 10H84a5 5 0 0 1 0-10Zm-20 29a6 6 0 1 1 0-12 6 6 0 0 1 0 12Zm20-9h39a5 5 0 0 1 0 10H84a5 5 0 0 1 0-10Zm-20 29a6 6 0 1 1 0-12 6 6 0 0 1 0 12Zm20-9h27a5 5 0 0 1 0 10H84a5 5 0 0 1 0-10Z"/>
</svg>
