<svg xmlns="http://www.w3.org/2000/svg" viewBox="0 0 512 512">
  <rect width="512" height="512" rx="104" fill="#246b64"/>
  <path fill="#fffaf2" d="M144 142h224a28 28 0 0 1 28 28v172a28 28 0 0 1-28 28H144a28 28 0 0 1-28-28V170a28 28 0 0 1 28-28Z"/>
  <path fill="#246b64" d="M177 216a18 18 0 1 1 0-36 18 18 0 0 1 0 36Zm54-25h110a14 14 0 0 1 0 28H231a14 14 0 0 1 0-28Zm-54 83a18 18 0 1 1 0-36 18 18 0 0 1 0 36Zm54-25h110a14 14 0 0 1 0 28H231a14 14 0 0 1 0-28Zm-54 83a18 18 0 1 1 0-36 18 18 0 0 1 0 36Zm54-25h78a14 14 0 0 1 0 28h-78a14 14 0 0 1 0-28Z"/>
</svg>
